<svg xmlns="http://www.w3.org/2000/svg" width="44.625" height="33.47" viewBox="0 0 44.625 33.47">
  <metadata><?xpacket begin="﻿" id="W5M0MpCehiHzreSzNTczkc9d"?>
<x:xmpmeta xmlns:x="adobe:ns:meta/" x:xmptk="Adobe XMP Core 5.6-c138 79.159824, 2016/09/14-01:09:01        ">
   <rdf:RDF xmlns:rdf="http://www.w3.org/1999/02/22-rdf-syntax-ns#">
      <rdf:Description rdf:about=""/>
   </rdf:RDF>
</x:xmpmeta>
                                                                                                    
                                                                                                    
                                                                                                    
                                                                                                    
                                                                                                    
                                                                                                    
                                                                                                    
                                                                                                    
                                                                                                    
                                                                                                    
                                                                                                    
                                                                                                    
                                                                                                    
                                                                                                    
                                                                                                    
                                                                                                    
                                                                                                    
                                                                                                    
                                                                                                    
                                                                                                    
                           
<?xpacket end="w"?></metadata>
<defs>
    <style>
      .cls-1 {
        fill: #fff;
        fill-rule: evenodd;
      }
    </style>
  </defs>
  <path id="Envelope" class="cls-1" d="M617.35,5932.59H583.631a5.42,5.42,0,0,0-5.457,5.37v22.72a5.42,5.42,0,0,0,5.457,5.37h33.71a5.42,5.42,0,0,0,5.456-5.37v-22.71A5.414,5.414,0,0,0,617.35,5932.59Zm2.964,28.09a2.946,2.946,0,0,1-2.964,2.92H583.631a2.946,2.946,0,0,1-2.964-2.92v-22.71a2.946,2.946,0,0,1,2.964-2.92h33.71a2.945,2.945,0,0,1,2.963,2.92v22.71h0.01Zm-14-11.64,10.914-9.65a1.224,1.224,0,0,0,.092-1.74,1.27,1.27,0,0,0-1.763-.09l-15.05,13.32-2.936-2.59a0.051,0.051,0,0,1-.019-0.03c-0.064-.06-0.129-0.11-0.2-0.17L585.4,5937.55a1.271,1.271,0,0,0-1.763.1,1.215,1.215,0,0,0,.1,1.74l11.042,9.73-11,10.15a1.211,1.211,0,0,0-.056,1.73,1.273,1.273,0,0,0,.914.4,1.255,1.255,0,0,0,.85-0.33l11.163-10.29,3.028,2.66a1.254,1.254,0,0,0,1.662-.01l3.112-2.75,11.1,10.4a1.276,1.276,0,0,0,.858.33,1.227,1.227,0,0,0,.859-2.12Z" transform="translate(-578.188 -5932.59)"/>
</svg>
